<svg height="2062" width="720" xmlns="http://www.w3.org/2000/svg">
<rect height="2062" fill="#555" width="720"></rect>
<text fill="#7f7" font-family="Courier New" font-size="12" xml:space="preserve">
<tspan x="10" y="26">11 megabytes installed</tspan>
<tspan x="10" y="42"></tspan>
<tspan x="10" y="58">node_modules</tspan>
<tspan x="10" y="74">└─┬ broccoli@1.1.1 </tspan>
<tspan x="10" y="90">  ├── broccoli-node-info@1.1.0 </tspan>
<tspan x="10" y="106">  ├── broccoli-slow-trees@2.0.0 </tspan>
<tspan x="10" y="122">  ├── broccoli-source@1.1.0 </tspan>
<tspan x="10" y="138">  ├─┬ commander@2.9.0 </tspan>
<tspan x="10" y="154">  │ └── graceful-readlink@1.0.1 </tspan>
<tspan x="10" y="170">  ├─┬ connect@3.6.1 </tspan>
<tspan x="10" y="186">  │ ├─┬ debug@2.6.3 </tspan>
<tspan x="10" y="202">  │ │ └── ms@0.7.2 </tspan>
<tspan x="10" y="218">  │ ├─┬ finalhandler@1.0.1 </tspan>
<tspan x="10" y="234">  │ │ ├── encodeurl@1.0.1 </tspan>
<tspan x="10" y="250">  │ │ ├── escape-html@1.0.3 </tspan>
<tspan x="10" y="266">  │ │ ├─┬ on-finished@2.3.0 </tspan>
<tspan x="10" y="282">  │ │ │ └── ee-first@1.1.1 </tspan>
<tspan x="10" y="298">  │ │ ├── statuses@1.3.1 </tspan>
<tspan x="10" y="314">  │ │ └── unpipe@1.0.0 </tspan>
<tspan x="10" y="330">  │ ├── parseurl@1.3.1 </tspan>
<tspan x="10" y="346">  │ └── utils-merge@1.0.0 </tspan>
<tspan x="10" y="362">  ├── copy-dereference@1.0.0 </tspan>
<tspan x="10" y="378">  ├─┬ findup-sync@0.4.3 </tspan>
<tspan x="10" y="394">  │ ├─┬ detect-file@0.1.0 </tspan>
<tspan x="10" y="410">  │ │ └── fs-exists-sync@0.1.0 </tspan>
<tspan x="10" y="426">  │ ├─┬ is-glob@2.0.1 </tspan>
<tspan x="10" y="442">  │ │ └── is-extglob@1.0.0 </tspan>
<tspan x="10" y="458">  │ ├─┬ micromatch@2.3.11 </tspan>
<tspan x="10" y="474">  │ │ ├─┬ arr-diff@2.0.0 </tspan>
<tspan x="10" y="490">  │ │ │ └── arr-flatten@1.0.3 </tspan>
<tspan x="10" y="506">  │ │ ├── array-unique@0.2.1 </tspan>
<tspan x="10" y="522">  │ │ ├─┬ braces@1.8.5 </tspan>
<tspan x="10" y="538">  │ │ │ ├─┬ expand-range@1.8.2 </tspan>
<tspan x="10" y="554">  │ │ │ │ └─┬ fill-range@2.2.3 </tspan>
<tspan x="10" y="570">  │ │ │ │   ├── is-number@2.1.0 </tspan>
<tspan x="10" y="586">  │ │ │ │   ├─┬ isobject@2.1.0 </tspan>
<tspan x="10" y="602">  │ │ │ │   │ └── isarray@1.0.0 </tspan>
<tspan x="10" y="618">  │ │ │ │   ├── randomatic@1.1.6 </tspan>
<tspan x="10" y="634">  │ │ │ │   └── repeat-string@1.6.1 </tspan>
<tspan x="10" y="650">  │ │ │ ├── preserve@0.2.0 </tspan>
<tspan x="10" y="666">  │ │ │ └── repeat-element@1.1.2 </tspan>
<tspan x="10" y="682">  │ │ ├─┬ expand-brackets@0.1.5 </tspan>
<tspan x="10" y="698">  │ │ │ └── is-posix-bracket@0.1.1 </tspan>
<tspan x="10" y="714">  │ │ ├── extglob@0.3.2 </tspan>
<tspan x="10" y="730">  │ │ ├── filename-regex@2.0.0 </tspan>
<tspan x="10" y="746">  │ │ ├─┬ kind-of@3.1.0 </tspan>
<tspan x="10" y="762">  │ │ │ └── is-buffer@1.1.5 </tspan>
<tspan x="10" y="778">  │ │ ├─┬ normalize-path@2.1.1 </tspan>
<tspan x="10" y="794">  │ │ │ └── remove-trailing-separator@1.0.1 </tspan>
<tspan x="10" y="810">  │ │ ├─┬ object.omit@2.0.1 </tspan>
<tspan x="10" y="826">  │ │ │ ├─┬ for-own@0.1.5 </tspan>
<tspan x="10" y="842">  │ │ │ │ └── for-in@1.0.2 </tspan>
<tspan x="10" y="858">  │ │ │ └── is-extendable@0.1.1 </tspan>
<tspan x="10" y="874">  │ │ ├─┬ parse-glob@3.0.4 </tspan>
<tspan x="10" y="890">  │ │ │ ├─┬ glob-base@0.3.0 </tspan>
<tspan x="10" y="906">  │ │ │ │ └── glob-parent@2.0.0 </tspan>
<tspan x="10" y="922">  │ │ │ └── is-dotfile@1.0.2 </tspan>
<tspan x="10" y="938">  │ │ └─┬ regex-cache@0.4.3 </tspan>
<tspan x="10" y="954">  │ │   ├── is-equal-shallow@0.1.3 </tspan>
<tspan x="10" y="970">  │ │   └── is-primitive@2.0.0 </tspan>
<tspan x="10" y="986">  │ └─┬ resolve-dir@0.1.1 </tspan>
<tspan x="10" y="1002">  │   ├─┬ expand-tilde@1.2.2 </tspan>
<tspan x="10" y="1018">  │   │ └── os-homedir@1.0.2 </tspan>
<tspan x="10" y="1034">  │   └─┬ global-modules@0.2.3 </tspan>
<tspan x="10" y="1050">  │     ├─┬ global-prefix@0.1.5 </tspan>
<tspan x="10" y="1066">  │     │ ├─┬ homedir-polyfill@1.0.1 </tspan>
<tspan x="10" y="1082">  │     │ │ └── parse-passwd@1.0.0 </tspan>
<tspan x="10" y="1098">  │     │ ├── ini@1.3.4 </tspan>
<tspan x="10" y="1114">  │     │ └─┬ which@1.2.14 </tspan>
<tspan x="10" y="1130">  │     │   └── isexe@2.0.0 </tspan>
<tspan x="10" y="1146">  │     └── is-windows@0.2.0 </tspan>
<tspan x="10" y="1162">  ├─┬ handlebars@4.0.6 </tspan>
<tspan x="10" y="1178">  │ ├── async@1.5.2 </tspan>
<tspan x="10" y="1194">  │ ├─┬ optimist@0.6.1 </tspan>
<tspan x="10" y="1210">  │ │ ├── minimist@0.0.10 </tspan>
<tspan x="10" y="1226">  │ │ └── wordwrap@0.0.3 </tspan>
<tspan x="10" y="1242">  │ ├─┬ source-map@0.4.4 </tspan>
<tspan x="10" y="1258">  │ │ └── amdefine@1.0.1 </tspan>
<tspan x="10" y="1274">  │ └─┬ uglify-js@2.8.22 </tspan>
<tspan x="10" y="1290">  │   ├── source-map@0.5.6 </tspan>
<tspan x="10" y="1306">  │   ├── uglify-to-browserify@1.0.2 </tspan>
<tspan x="10" y="1322">  │   └─┬ yargs@3.10.0 </tspan>
<tspan x="10" y="1338">  │     ├── camelcase@1.2.1 </tspan>
<tspan x="10" y="1354">  │     ├─┬ cliui@2.1.0 </tspan>
<tspan x="10" y="1370">  │     │ ├─┬ center-align@0.1.3 </tspan>
<tspan x="10" y="1386">  │     │ │ ├─┬ align-text@0.1.4 </tspan>
<tspan x="10" y="1402">  │     │ │ │ └── longest@1.0.1 </tspan>
<tspan x="10" y="1418">  │     │ │ └── lazy-cache@1.0.4 </tspan>
<tspan x="10" y="1434">  │     │ ├── right-align@0.1.3 </tspan>
<tspan x="10" y="1450">  │     │ └── wordwrap@0.0.2 </tspan>
<tspan x="10" y="1466">  │     ├── decamelize@1.2.0 </tspan>
<tspan x="10" y="1482">  │     └── window-size@0.1.0 </tspan>
<tspan x="10" y="1498">  ├─┬ heimdalljs-logger@0.1.9 </tspan>
<tspan x="10" y="1514">  │ └─┬ heimdalljs@0.2.4 </tspan>
<tspan x="10" y="1530">  │   └── rsvp@3.2.1 </tspan>
<tspan x="10" y="1546">  ├── mime@1.3.4 </tspan>
<tspan x="10" y="1562">  ├─┬ rimraf@2.6.1 </tspan>
<tspan x="10" y="1578">  │ └─┬ glob@7.1.1 </tspan>
<tspan x="10" y="1594">  │   ├── fs.realpath@1.0.0 </tspan>
<tspan x="10" y="1610">  │   ├─┬ inflight@1.0.6 </tspan>
<tspan x="10" y="1626">  │   │ └── wrappy@1.0.2 </tspan>
<tspan x="10" y="1642">  │   ├── inherits@2.0.3 </tspan>
<tspan x="10" y="1658">  │   ├── once@1.4.0 </tspan>
<tspan x="10" y="1674">  │   └── path-is-absolute@1.0.1 </tspan>
<tspan x="10" y="1690">  ├── rsvp@3.5.0 </tspan>
<tspan x="10" y="1706">  ├─┬ sane@1.6.0 </tspan>
<tspan x="10" y="1722">  │ ├─┬ anymatch@1.3.0 </tspan>
<tspan x="10" y="1738">  │ │ └── arrify@1.0.1 </tspan>
<tspan x="10" y="1754">  │ ├─┬ exec-sh@0.2.0 </tspan>
<tspan x="10" y="1770">  │ │ └── merge@1.2.0 </tspan>
<tspan x="10" y="1786">  │ ├─┬ fb-watchman@1.9.2 </tspan>
<tspan x="10" y="1802">  │ │ └─┬ bser@1.0.2 </tspan>
<tspan x="10" y="1818">  │ │   └── node-int64@0.4.0 </tspan>
<tspan x="10" y="1834">  │ ├─┬ minimatch@3.0.3 </tspan>
<tspan x="10" y="1850">  │ │ └─┬ brace-expansion@1.1.7 </tspan>
<tspan x="10" y="1866">  │ │   ├── balanced-match@0.4.2 </tspan>
<tspan x="10" y="1882">  │ │   └── concat-map@0.0.1 </tspan>
<tspan x="10" y="1898">  │ ├── minimist@1.2.0 </tspan>
<tspan x="10" y="1914">  │ ├─┬ walker@1.0.7 </tspan>
<tspan x="10" y="1930">  │ │ └─┬ makeerror@1.0.11 </tspan>
<tspan x="10" y="1946">  │ │   └── tmpl@1.0.4 </tspan>
<tspan x="10" y="1962">  │ └── watch@0.10.0 </tspan>
<tspan x="10" y="1978">  ├─┬ tmp@0.0.28 </tspan>
<tspan x="10" y="1994">  │ └── os-tmpdir@1.0.2 </tspan>
<tspan x="10" y="2010">  └─┬ underscore.string@3.3.4 </tspan>
<tspan x="10" y="2026">    ├── sprintf-js@1.0.3 </tspan>
<tspan x="10" y="2042">    └── util-deprecate@1.0.2</tspan>
</text>
</svg>
